<svg width="18" height="14" viewBox="0 0 18 14" fill="none" xmlns="http://www.w3.org/2000/svg">
<path d="M17.1327 7.86733H3.61472L8.267 12.5196C8.60568 12.8583 8.60568 13.4075 8.26721 13.746C7.92853 14.0847 7.37908 14.0847 7.0404 13.746L0.907833 7.6132C0.867502 7.57287 0.831511 7.52843 0.799854 7.48116C0.785326 7.45926 0.775135 7.43562 0.762558 7.41286C0.748249 7.38597 0.731768 7.36038 0.720276 7.33198C0.707916 7.30271 0.700979 7.27235 0.692307 7.24199C0.68515 7.21793 0.675829 7.19494 0.670841 7.17022C0.659567 7.11385 0.653711 7.05704 0.653711 7.00001L0.653927 6.99806C0.654144 6.9419 0.659782 6.88553 0.670841 6.83024C0.676044 6.80422 0.685801 6.78015 0.69339 6.75456C0.701847 6.72572 0.708351 6.69645 0.72006 6.66848C0.732635 6.63834 0.74955 6.61102 0.765162 6.58262C0.776871 6.56137 0.786192 6.53969 0.799635 6.5193C0.831293 6.47139 0.867722 6.42672 0.908268 6.38617L7.04062 0.254042C7.3793 -0.0846443 7.92853 -0.0846446 8.26721 0.253825C8.6059 0.592511 8.6059 1.14174 8.26721 1.48064L3.61494 6.1327H17.1327C17.6117 6.1327 18 6.52104 18 7.00001C18 7.47899 17.6117 7.86733 17.1327 7.86733Z" fill="white"/>
</svg>
