<svg width="15" height="12" viewBox="0 0 15 12" fill="none" xmlns="http://www.w3.org/2000/svg">
<path d="M14.1248 6.74342H2.53793L6.52559 10.7311C6.81589 11.0214 6.81589 11.4922 6.52578 11.7823C6.23547 12.0726 5.76452 12.0726 5.47422 11.7823L0.217736 6.5256C0.183167 6.49104 0.152316 6.45294 0.125182 6.41242C0.11273 6.39365 0.103994 6.37339 0.093215 6.35388C0.0809488 6.33083 0.066823 6.3089 0.0569725 6.28455C0.0463791 6.25946 0.0404329 6.23344 0.0329981 6.20742C0.026865 6.18679 0.0188742 6.16709 0.0145998 6.14591C0.00493526 6.09758 -8.29697e-05 6.04889 -8.29697e-05 6.00001L0.000102043 5.99834C0.00028801 5.9502 0.00512123 5.90188 0.0145998 5.85449C0.0190601 5.83219 0.0274229 5.81156 0.0339279 5.78963C0.0411758 5.76491 0.046751 5.73982 0.0567875 5.71584C0.0675669 5.69001 0.0820637 5.66659 0.0954456 5.64224C0.105481 5.62403 0.113472 5.60545 0.124995 5.58798C0.15213 5.5469 0.183354 5.50862 0.218109 5.47386L5.47441 0.21775C5.76471 -0.0725523 6.23547 -0.0725525 6.52578 0.217564C6.81608 0.507867 6.81608 0.978633 6.52578 1.26912L2.53811 5.2566H14.1248C14.5353 5.2566 14.8682 5.58946 14.8682 6.00001C14.8682 6.41056 14.5353 6.74342 14.1248 6.74342Z" fill="#555555"/>
</svg>
