<svg width="18" height="14" viewBox="0 0 18 14" fill="none" xmlns="http://www.w3.org/2000/svg">
<path d="M0.867314 7.86733H14.3853L9.733 12.5196C9.39432 12.8583 9.39432 13.4075 9.73279 13.746C10.0715 14.0847 10.6209 14.0847 10.9596 13.746L17.0922 7.6132C17.1325 7.57287 17.1685 7.52843 17.2001 7.48116C17.2147 7.45926 17.2249 7.43562 17.2374 7.41286C17.2518 7.38597 17.2682 7.36038 17.2797 7.33198C17.2921 7.30271 17.299 7.27235 17.3077 7.24199C17.3148 7.21793 17.3242 7.19494 17.3292 7.17022C17.3404 7.11385 17.3463 7.05704 17.3463 7.00001L17.3461 6.99806C17.3459 6.9419 17.3402 6.88553 17.3292 6.83024C17.324 6.80422 17.3142 6.78015 17.3066 6.75456C17.2982 6.72572 17.2916 6.69645 17.2799 6.66848C17.2674 6.63834 17.2505 6.61102 17.2348 6.58262C17.2231 6.56137 17.2138 6.53969 17.2004 6.5193C17.1687 6.47139 17.1323 6.42672 17.0917 6.38617L10.9594 0.254042C10.6207 -0.0846443 10.0715 -0.0846446 9.73279 0.253825C9.3941 0.592511 9.3941 1.14174 9.73279 1.48064L14.3851 6.1327H0.867314C0.38834 6.1327 0 6.52104 0 7.00001C0 7.47899 0.38834 7.86733 0.867314 7.86733Z" fill="white"/>
</svg>
