<svg width="10" height="8" viewBox="0 0 10 8" fill="none" xmlns="http://www.w3.org/2000/svg">
<path d="M0.495608 4.49562H8.22016L5.56172 7.15406C5.36818 7.34759 5.36818 7.66144 5.56159 7.85485C5.75513 8.04838 6.0691 8.04838 6.26263 7.85485L9.76695 4.3504C9.79 4.32736 9.81057 4.30196 9.82866 4.27495C9.83696 4.26243 9.84278 4.24893 9.84997 4.23592C9.85814 4.22055 9.86756 4.20593 9.87413 4.1897C9.88119 4.17297 9.88516 4.15563 9.89011 4.13828C9.8942 4.12453 9.89953 4.1114 9.90238 4.09727C9.90882 4.06506 9.91217 4.03259 9.91217 4.00001L9.91204 3.99889C9.91192 3.9668 9.9087 3.93459 9.90238 3.90299C9.8994 3.88812 9.89383 3.87437 9.88949 3.85975C9.88466 3.84327 9.88094 3.82655 9.87425 3.81056C9.86707 3.79334 9.8574 3.77773 9.84848 3.7615C9.84179 3.74935 9.83646 3.73696 9.82878 3.72532C9.81069 3.69793 9.78987 3.67241 9.7667 3.64924L6.26251 0.145167C6.06897 -0.0483682 5.75513 -0.0483684 5.56159 0.145043C5.36806 0.338578 5.36806 0.652422 5.56159 0.846081L8.22004 3.5044H0.495608C0.221909 3.5044 0 3.72631 0 4.00001C0 4.27371 0.221909 4.49562 0.495608 4.49562Z" fill="#555555"/>
</svg>
