<svg width="16" height="16" viewBox="0 0 16 16" fill="none" xmlns="http://www.w3.org/2000/svg">
<path d="M8.00005 4.25489C5.96779 4.25489 4.28392 5.90973 4.28392 7.97102C4.28392 10.0323 5.93876 11.6872 8.00005 11.6872C10.0613 11.6872 11.7162 10.0033 11.7162 7.97102C11.7162 5.93877 10.0323 4.25489 8.00005 4.25489ZM8.00005 10.3517C6.6936 10.3517 5.6194 9.27747 5.6194 7.97102C5.6194 6.66457 6.6936 5.59038 8.00005 5.59038C9.3065 5.59038 10.3807 6.66457 10.3807 7.97102C10.3807 9.27747 9.3065 10.3517 8.00005 10.3517Z" fill="#AC8F78"/>
<path d="M11.8613 5.00971C12.3263 5.00971 12.7033 4.63276 12.7033 4.16778C12.7033 3.70279 12.3263 3.32584 11.8613 3.32584C11.3963 3.32584 11.0194 3.70279 11.0194 4.16778C11.0194 4.63276 11.3963 5.00971 11.8613 5.00971Z" fill="#AC8F78"/>
<path d="M14.0388 1.99037C13.2839 1.2065 12.2097 0.800049 10.9904 0.800049H5.00973C2.48392 0.800049 0.800049 2.48392 0.800049 5.00973V10.9613C0.800049 12.2097 1.2065 13.2839 2.0194 14.0678C2.80327 14.8226 3.84844 15.2 5.03876 15.2H10.9613C12.2097 15.2 13.2549 14.7936 14.0097 14.0678C14.7936 13.313 15.2 12.2388 15.2 10.9904V5.00973C15.2 3.79037 14.7936 2.74521 14.0388 1.99037ZM13.9226 10.9904C13.9226 11.8904 13.6033 12.6162 13.0807 13.1097C12.5581 13.6033 11.8323 13.8646 10.9613 13.8646H5.03876C4.16779 13.8646 3.44198 13.6033 2.9194 13.1097C2.39682 12.5871 2.13553 11.8613 2.13553 10.9613V5.00973C2.13553 4.13876 2.39682 3.41295 2.9194 2.89037C3.41295 2.39682 4.16779 2.13553 5.03876 2.13553H11.0194C11.8904 2.13553 12.6162 2.39682 13.1388 2.9194C13.6323 3.44198 13.9226 4.16779 13.9226 5.00973V10.9904Z" fill="#AC8F78"/>
</svg>
