<svg width="26" height="26" viewBox="0 0 26 26" fill="none" xmlns="http://www.w3.org/2000/svg">
<path d="M12.9996 6.55011C9.49961 6.55011 6.59961 9.40011 6.59961 12.9501C6.59961 16.5001 9.44961 19.3501 12.9996 19.3501C16.5496 19.3501 19.3996 16.4501 19.3996 12.9501C19.3996 9.45011 16.4996 6.55011 12.9996 6.55011ZM12.9996 17.0501C10.7496 17.0501 8.89961 15.2001 8.89961 12.9501C8.89961 10.7001 10.7496 8.85011 12.9996 8.85011C15.2496 8.85011 17.0996 10.7001 17.0996 12.9501C17.0996 15.2001 15.2496 17.0501 12.9996 17.0501Z" fill="#AC8F78"/>
<path d="M19.6496 7.85007C20.4504 7.85007 21.0996 7.20089 21.0996 6.40007C21.0996 5.59926 20.4504 4.95007 19.6496 4.95007C18.8488 4.95007 18.1996 5.59926 18.1996 6.40007C18.1996 7.20089 18.8488 7.85007 19.6496 7.85007Z" fill="#AC8F78"/>
<path d="M23.3996 2.6501C22.0996 1.3001 20.2496 0.600098 18.1496 0.600098H7.84961C3.49961 0.600098 0.599609 3.5001 0.599609 7.8501V18.1001C0.599609 20.2501 1.29961 22.1001 2.69961 23.4501C4.04961 24.7501 5.84961 25.4001 7.89961 25.4001H18.0996C20.2496 25.4001 22.0496 24.7001 23.3496 23.4501C24.6996 22.1501 25.3996 20.3001 25.3996 18.1501V7.8501C25.3996 5.7501 24.6996 3.9501 23.3996 2.6501ZM23.1996 18.1501C23.1996 19.7001 22.6496 20.9501 21.7496 21.8001C20.8496 22.6501 19.5996 23.1001 18.0996 23.1001H7.89961C6.39961 23.1001 5.14961 22.6501 4.24961 21.8001C3.34961 20.9001 2.89961 19.6501 2.89961 18.1001V7.8501C2.89961 6.3501 3.34961 5.1001 4.24961 4.2001C5.09961 3.3501 6.39961 2.9001 7.89961 2.9001H18.1996C19.6996 2.9001 20.9496 3.3501 21.8496 4.2501C22.6996 5.1501 23.1996 6.4001 23.1996 7.8501V18.1501Z" fill="#AC8F78"/>
</svg>
