<svg width="14" height="12" viewBox="0 0 14 12" fill="none" xmlns="http://www.w3.org/2000/svg">
<path d="M13.8142 1.87842C13.3321 2.09558 12.8133 2.24207 12.2689 2.30762C12.8247 1.97041 13.2509 1.43626 13.4519 0.799066C12.932 1.11173 12.3565 1.33861 11.7434 1.46108C11.2528 0.931254 10.5534 0.599976 9.77956 0.599976C8.29385 0.599976 7.08925 1.82069 7.08925 3.32655C7.08925 3.53994 7.11294 3.74793 7.159 3.94783C4.92283 3.83399 2.94011 2.7487 1.61305 1.09905C1.38145 1.50155 1.24888 1.96987 1.24888 2.47003C1.24888 3.41584 1.72379 4.25051 2.44575 4.73934C2.00491 4.72504 1.58989 4.60229 1.22705 4.39808C1.22678 4.40941 1.22678 4.42101 1.22678 4.43261C1.22678 5.75341 2.15425 6.85515 3.38521 7.10604C3.15946 7.16808 2.92174 7.20153 2.67629 7.20153C2.50272 7.20153 2.33421 7.18454 2.16996 7.15244C2.51257 8.23557 3.50607 9.02411 4.68325 9.04596C3.76243 9.7773 2.60255 10.2133 1.34178 10.2133C1.12482 10.2133 0.910523 10.2003 0.699951 10.1749C1.89097 10.9489 3.30508 11.4 4.82434 11.4C9.77344 11.4 12.4795 7.24551 12.4795 3.64245C12.4795 3.52429 12.4771 3.4064 12.472 3.28932C12.9975 2.90571 13.4538 2.42524 13.8142 1.87842Z" fill="#AC8F78"/>
</svg>
