<svg width="23" height="20" viewBox="0 0 23 20" fill="none" xmlns="http://www.w3.org/2000/svg">
<path d="M22.7361 2.90171C21.9058 3.27572 21.0122 3.528 20.0747 3.6409C21.032 3.06014 21.766 2.14023 22.1121 1.04283C21.2167 1.58131 20.2255 1.97204 19.1696 2.18297C18.3247 1.27049 17.1203 0.699951 15.7875 0.699951C13.2288 0.699951 11.1542 2.80229 11.1542 5.39572C11.1542 5.76322 11.195 6.12143 11.2743 6.4657C7.42313 6.26964 4.00843 4.40053 1.72295 1.55947C1.32408 2.25266 1.09576 3.05922 1.09576 3.92059C1.09576 5.5495 1.91367 6.98699 3.15705 7.82885C2.39782 7.80423 1.68306 7.59283 1.05817 7.24113C1.05771 7.26064 1.05771 7.28062 1.05771 7.3006C1.05771 9.5753 2.65502 11.4727 4.775 11.9048C4.38621 12.0117 3.9768 12.0693 3.55409 12.0693C3.25516 12.0693 2.96495 12.04 2.68207 11.9847C3.27213 13.8501 4.98315 15.2082 7.01051 15.2458C5.42465 16.5054 3.42709 17.2562 1.25577 17.2562C0.882112 17.2562 0.513042 17.2339 0.150391 17.1902C2.2016 18.5231 4.637 19.3 7.2535 19.3C15.777 19.3 20.4373 12.145 20.4373 5.93977C20.4373 5.73627 20.4332 5.53324 20.4245 5.3316C21.3295 4.67093 22.1153 3.84347 22.7361 2.90171Z" fill="#AC8F78"/>
</svg>
