<svg width="18" height="10" viewBox="0 0 18 10" fill="none" xmlns="http://www.w3.org/2000/svg">
<path d="M16.7308 1.11031C16.8421 0.75875 16.7308 0.5 16.1955 0.5H14.4242C13.9731 0.5 13.7655 0.722187 13.6543 0.969687C13.6543 0.969687 12.7521 3.02562 11.4769 4.35875C11.0649 4.74406 10.8755 4.86781 10.6499 4.86781C10.5386 4.86781 10.3672 4.74406 10.3672 4.3925V1.11031C10.3672 0.688437 10.2409 0.5 9.868 0.5H7.08318C6.80048 0.5 6.63207 0.696875 6.63207 0.879687C6.63207 1.27906 7.26963 1.37187 7.33579 2.49687V4.93813C7.33579 5.4725 7.23354 5.57094 7.00799 5.57094C6.40652 5.57094 4.94494 3.50656 4.07881 1.14406C3.90439 0.685625 3.73297 0.5 3.27885 0.5H1.50751C1.00227 0.5 0.900024 0.722187 0.900024 0.969687C0.900024 1.40844 1.5015 3.58813 3.69989 6.46813C5.16447 8.43406 7.22753 9.5 9.10413 9.5C10.2319 9.5 10.3702 9.26375 10.3702 8.85594C10.3702 6.97719 10.268 6.8 10.8334 6.8C11.095 6.8 11.5461 6.92375 12.5987 7.87156C13.8016 8.99656 14.0001 9.5 14.6738 9.5H16.4451C16.9504 9.5 17.206 9.26375 17.0586 8.79688C16.7218 7.81531 14.4452 5.79594 14.343 5.66094C14.0813 5.34594 14.1565 5.20531 14.343 4.92406C14.346 4.92125 16.5083 2.075 16.7308 1.11031Z" fill="#AC8F78"/>
</svg>
