<svg width="28" height="16" viewBox="0 0 28 16" fill="none" xmlns="http://www.w3.org/2000/svg">
<path d="M27.3149 1.30109C27.5066 0.695625 27.3149 0.25 26.393 0.25H23.3424C22.5655 0.25 22.2081 0.632656 22.0164 1.05891C22.0164 1.05891 20.4626 4.59969 18.2666 6.89562C17.557 7.55922 17.2307 7.77234 16.8423 7.77234C16.6506 7.77234 16.3554 7.55922 16.3554 6.95375V1.30109C16.3554 0.574531 16.1379 0.25 15.4956 0.25H10.6995C10.2127 0.25 9.92264 0.589062 9.92264 0.903906C9.92264 1.59172 11.0207 1.75156 11.1346 3.68906V7.89344C11.1346 8.81375 10.9585 8.98328 10.5701 8.98328C9.53419 8.98328 7.01702 5.42797 5.52536 1.35922C5.22496 0.569688 4.92974 0.25 4.14765 0.25H1.09701C0.226879 0.25 0.0507812 0.632656 0.0507812 1.05891C0.0507812 1.81453 1.08665 5.56844 4.87276 10.5284C7.39511 13.9142 10.9482 15.75 14.1801 15.75C16.1223 15.75 16.3606 15.3431 16.3606 14.6408C16.3606 11.4052 16.1845 11.1 17.1582 11.1C17.6088 11.1 18.3857 11.3131 20.1985 12.9455C22.2702 14.883 22.6121 15.75 23.7722 15.75H26.8229C27.693 15.75 28.1333 15.3431 27.8795 14.5391C27.2994 12.8486 23.3786 9.37078 23.2025 9.13828C22.7519 8.59578 22.8814 8.35359 23.2025 7.86922C23.2077 7.86438 26.9317 2.9625 27.3149 1.30109Z" fill="#AC8F78"/>
</svg>
