<svg width="15" height="11" viewBox="0 0 15 11" fill="none" xmlns="http://www.w3.org/2000/svg">
<path d="M14.3705 2.04591C14.2111 1.43738 13.7415 0.958206 13.1452 0.795563C12.0642 0.5 7.73006 0.5 7.73006 0.5C7.73006 0.5 3.39591 0.5 2.31493 0.795563C1.71868 0.958206 1.24898 1.43738 1.08962 2.04591C0.800049 3.14883 0.800049 5.45008 0.800049 5.45008C0.800049 5.45008 0.800049 7.75128 1.08962 8.85409C1.24898 9.46262 1.71868 9.94193 2.31493 10.1045C3.39591 10.4 7.73006 10.4 7.73006 10.4C7.73006 10.4 12.0642 10.4 13.1452 10.1045C13.7415 9.94193 14.2111 9.46262 14.3705 8.85409C14.66 7.75128 14.66 5.45008 14.66 5.45008C14.66 5.45008 14.66 3.14883 14.3705 2.04591ZM6.34398 7.57154V3.3286L9.94485 5.45008L6.34398 7.57154Z" fill="#AC8F78"/>
</svg>
