<svg width="25" height="18" viewBox="0 0 25 18" fill="none" xmlns="http://www.w3.org/2000/svg">
<path d="M23.9709 2.9124C23.6965 1.86437 22.8877 1.03913 21.8606 0.759026C19.999 0.25 12.5346 0.25 12.5346 0.25C12.5346 0.25 5.07025 0.25 3.20858 0.759026C2.1817 1.03913 1.37278 1.86437 1.09832 2.9124C0.599609 4.81187 0.599609 8.77514 0.599609 8.77514C0.599609 8.77514 0.599609 12.7383 1.09832 14.6376C1.37278 15.6856 2.1817 16.5111 3.20858 16.7912C5.07025 17.3 12.5346 17.3 12.5346 17.3C12.5346 17.3 19.999 17.3 21.8606 16.7912C22.8877 16.5111 23.6965 15.6856 23.9709 14.6376C24.4696 12.7383 24.4696 8.77514 24.4696 8.77514C24.4696 8.77514 24.4696 4.81187 23.9709 2.9124ZM10.1475 12.4288V5.12148L16.349 8.77514L10.1475 12.4288Z" fill="#AC8F78"/>
</svg>
